<svg xmlns="http://www.w3.org/2000/svg" viewBox="0 0 1080 1080"><defs><style>.cls-1{fill:#017d4b;}.cls-2,.cls-3{fill:#ffe20e;}.cls-2,.cls-3,.cls-4,.cls-5{stroke:#000;}.cls-2,.cls-4,.cls-5{stroke-linejoin:round;}.cls-2,.cls-5{stroke-width:8px;}.cls-3{stroke-miterlimit:10;stroke-width:9px;}.cls-4,.cls-5{fill:none;}.cls-4{stroke-linecap:round;stroke-width:10px;}</style></defs><title>degithack</title><g id="レイヤー_2" data-name="レイヤー 2"><g id="レイヤー_1-2" data-name="レイヤー 1"><rect class="cls-1" width="1080" height="1080"/><g id="logo"><g id="ボ"><polygon class="cls-2" points="222 411 262 411 262 371 287 371 287 411 327 411 327 435 287 435 287 499 261 499 261 438 222 438 222 411"/><polygon class="cls-2" points="236 451 216 474 234.71 494 253 468.86 236 451"/><polygon class="cls-2" points="313 446 336 473 316.57 491 296 466.66 313 446"/><circle class="cls-3" cx="314.37" cy="399.62" r="17.87"/><circle class="cls-3" cx="350.13" cy="399.62" r="17.87"/></g><path id="ス" class="cls-2" d="M433,385h78c0,15-12,50-16,55,5,4,25,18,25,18l-12,23-31-21-44,39s-10-13-19-21c28-17,62-55,62-66-9,0-43,1-43,1Z"/><polygon id="キ" class="cls-2" points="594.53 410.07 614.78 401.16 607.06 383.61 628.28 374.27 636 391.83 655.29 383.34 665.59 406.74 649.01 414.21 656.47 430.19 688.31 416.53 697.75 437.99 663.95 452.56 679.92 487.71 654.36 498.97 638.92 463.87 607.09 477.87 597.23 455.44 630.98 440.59 624.98 426.94 605.69 435.43 594.53 410.07"/><g id="タ"><polygon class="cls-2" points="790 426 816 438 795 487 819 498 866 401 797 372 758 434 778 445 790 426"/><line class="cls-4" x1="808" y1="403" x2="826" y2="411"/></g><path id="ス-2" data-name="ス" class="cls-2" d="M244,603h78c0,15-12,50-16,55,5,4,25,18,25,18l-12,23-31-21-44,39s-10-13-19-21c28-17,62-55,62-66-9,0-43,1-43,1Z"/><path id="イ" class="cls-2" d="M448,664v49h29l2-68,28-22s-15-16-19-20c-22,19-60,45-84,58,4,6,17,23,17,23Z"/><g id="ッ"><circle class="cls-2" cx="593.5" cy="649.5" r="23.5"/><circle class="cls-2" cx="640.5" cy="649.5" r="23.5"/><path class="cls-2" d="M682,656c3,3,15,14,18,17-5,8-38,38-47,44l-18-18C644.57,692,668.08,671,682,656Z"/><circle cx="593.5" cy="649.5" r="5.5"/><circle cx="640.5" cy="649.5" r="5.5"/></g><path id="チ" class="cls-2" d="M855,588c2,7,7,22,7,22l-19,10v28h30v24H844l-11,42-30-4,10-37H781V647h32V627l-27,7s-4-18-5-23C794,608,838,596,855,588Z"/><rect id="枠" class="cls-5" x="61" y="206" width="957" height="668" rx="12" ry="12"/></g></g></g></svg>